HIERARCHY
ROOT Hips
{
	OFFSET 45.649799 -9.317214 86.621803
	CHANNELS 6 Xposition Yposition Zposition Xrotation Yrotation Zrotation
	JOINT spine
	{
		OFFSET 0.000000 -0.393701 6.846367
		CHANNELS 3 Xrotation Yrotation Zrotation
		JOINT spine1
		{
			OFFSET 0.000000 -0.000002 9.496208
			CHANNELS 3 Xrotation Yrotation Zrotation
			JOINT spine2
			{
				OFFSET 0.000000 -0.000001 9.099091
				CHANNELS 3 Xrotation Yrotation Zrotation
				JOINT Neck
				{
					OFFSET 0.000000 -1.113784 23.361198
					CHANNELS 3 Xrotation Yrotation Zrotation
					JOINT Head
					{
						OFFSET 0.000000 -0.000001 7.058014
						CHANNELS 3 Xrotation Yrotation Zrotation
						End Site
						{
							OFFSET 0.000000 5.634187 17.084396
						}
					}
				}
				JOINT RightShoulder
				{
					OFFSET -3.831360 0.533489 9.826309
					CHANNELS 3 Xrotation Yrotation Zrotation
					JOINT RightArm
					{
						OFFSET 0.000000 -0.000002 12.888100
						CHANNELS 3 Xrotation Yrotation Zrotation
						JOINT RightArmRoll
						{
							OFFSET 0.000000 -0.000001 6.506165
							CHANNELS 3 Xrotation Yrotation Zrotation
							JOINT RightForeArm
							{
								OFFSET 0.000000 -0.000003 18.950104
								CHANNELS 3 Xrotation Yrotation Zrotation
								JOINT RightForeArmRoll
								{
									OFFSET 0.000000 -0.000002 7.300919
									CHANNELS 3 Xrotation Yrotation Zrotation
									JOINT RightHand
									{
										OFFSET 0.000000 -0.000002 14.651398
										CHANNELS 3 Xrotation Yrotation Zrotation
										End Site
										{
											OFFSET 0.000000 0.000000 0.100006
										}
									}
								}
							}
						}
					}
				}
				JOINT LeftShoulder
				{
					OFFSET 3.831360 0.533489 9.826309
					CHANNELS 3 Xrotation Yrotation Zrotation
					JOINT LeftArm
					{
						OFFSET 0.000000 -0.000002 12.888100
						CHANNELS 3 Xrotation Yrotation Zrotation
						JOINT LeftArmRoll
						{
							OFFSET 0.000000 -0.000001 6.506165
							CHANNELS 3 Xrotation Yrotation Zrotation
							JOINT LeftForeArm
							{
								OFFSET 0.000000 -0.000003 18.950104
								CHANNELS 3 Xrotation Yrotation Zrotation
								JOINT LeftForeArmRoll
								{
									OFFSET 0.000000 -0.000002 7.300934
									CHANNELS 3 Xrotation Yrotation Zrotation
									JOINT LeftHand
									{
										OFFSET 0.000000 -0.000002 14.651398
										CHANNELS 3 Xrotation Yrotation Zrotation
										End Site
										{
											OFFSET 0.000000 0.000000 0.100006
										}
									}
								}
							}
						}
					}
				}
			}
		}
	}
	JOINT RightUpLeg
	{
		OFFSET -6.068371 0.933477 -1.112778
		CHANNELS 3 Xrotation Yrotation Zrotation
		JOINT RightUpLegRoll
		{
			OFFSET 0.000000 -0.000003 17.179604
			CHANNELS 3 Xrotation Yrotation Zrotation
			JOINT RightLeg
			{
				OFFSET 0.000000 0.000004 -21.274300
				CHANNELS 3 Xrotation Yrotation Zrotation
				JOINT RightLegRoll
				{
					OFFSET 0.000000 -0.000004 21.343903
					CHANNELS 3 Xrotation Yrotation Zrotation
					JOINT RightFoot
					{
						OFFSET 0.000000 -0.000003 17.765198
						CHANNELS 3 Xrotation Yrotation Zrotation
						JOINT RightToeBase
						{
							OFFSET 0.000000 -0.000002 14.850807
							CHANNELS 3 Xrotation Yrotation Zrotation
							End Site
							{
								OFFSET 0.006294 0.829004 7.192123
							}
						}
					}
				}
			}
		}
	}
	JOINT LeftUpLeg
	{
		OFFSET 6.068371 0.933477 -1.112778
		CHANNELS 3 Xrotation Yrotation Zrotation
		JOINT LeftUpLegRoll
		{
			OFFSET 0.000000 -0.000003 17.179703
			CHANNELS 3 Xrotation Yrotation Zrotation
			JOINT LeftLeg
			{
				OFFSET 0.000000 -0.000003 21.274200
				CHANNELS 3 Xrotation Yrotation Zrotation
				JOINT LeftLegRoll
				{
					OFFSET 0.000000 -0.000004 21.541206
					CHANNELS 3 Xrotation Yrotation Zrotation
					JOINT LeftFoot
					{
						OFFSET 0.000000 -0.000003 17.567902
						CHANNELS 3 Xrotation Yrotation Zrotation
						JOINT LeftToeBase
						{
							OFFSET 0.000000 -0.000002 14.850800
							CHANNELS 3 Xrotation Yrotation Zrotation
							End Site
							{
								OFFSET -0.028210 0.829004 7.192123
							}
						}
					}
				}
			}
		}
	}
}
MOTION
Frames: 12
Frame Time: 0.041667
51.032398 -9.565313 86.377983 1.298987 0.437143 49.575787 -2.019579 -3.415562 2.058201 0.084885 -6.880682 4.040125 1.733148 -6.831834 4.122432 -9.139586 31.701671 8.249767 16.113272 -20.698434 4.329598 2.645605 -32.801468 7.496756 110.531449 6.761171 110.045378 0.000008 -0.000007 -0.000008 19.980467 -14.810029 0.907502 0.000005 0.000008 -3.000020 -4.999605 -7.998821 -0.000076 -62.617091 76.386452 68.979255 40.765649 71.934760 -0.736808 -0.000001 -0.000008 0.000005 67.013411 8.090880 -10.205506 -0.000010 -0.000000 3.000006 -5.000081 8.000664 0.000448 -9.399425 -176.104844 0.895713 -179.999991 0.000004 -1.065001 155.075689 -4.529109 -1.470549 0.000001 0.000001 0.381663 81.114425 6.814122 1.266759 25.456945 -7.355610 0.000006 -13.031805 -174.787997 2.987522 -0.000004 -0.000005 -1.679009 -23.091603 3.275694 0.742631 -0.000008 0.000004 -1.082928 77.030580 -8.572347 3.997922 25.456955 7.355636 -0.000010 
51.026695 -9.587225 86.387901 1.280886 0.487070 49.676205 -2.017898 -3.407940 2.054847 0.087783 -6.865312 4.033665 1.736034 -6.816540 4.115772 -9.120045 31.713521 8.213348 16.057421 -20.721435 4.290392 2.614446 -32.936965 7.426732 110.654447 6.671882 109.784916 0.000008 -0.000008 -0.000005 20.159112 -14.943919 0.968333 0.000003 0.000009 -3.000020 -4.999605 -7.998822 -0.000077 -62.607741 76.389129 68.968778 40.711879 71.965878 -1.159287 0.000002 -0.000009 0.000003 66.788356 8.271280 -10.281509 -0.000007 -0.000000 3.000010 -5.000084 8.000663 0.000446 -9.363552 -176.176479 0.878581 -179.999991 0.000005 -1.070000 155.154154 -4.551955 -1.466558 0.000001 0.000002 0.382511 81.103101 6.825767 1.225248 25.456950 -7.355608 0.000005 -13.083878 -174.847543 2.984648 -0.000005 -0.000005 -1.673191 -23.118177 3.243805 0.743388 -0.000008 0.000003 -1.086299 76.999502 -8.560354 3.950838 25.456955 7.355628 -0.000008 
51.004601 -9.612797 86.460999 1.264433 0.535482 49.773375 -2.016099 -3.400169 2.051709 0.090915 -6.849632 4.027617 1.739150 -6.800926 4.109541 -9.100076 31.726779 8.177802 16.003803 -20.747214 4.252887 2.586608 -33.064690 7.362761 110.777219 6.579555 109.532691 0.000008 -0.000008 -0.000006 20.335604 -15.074287 1.028768 0.000004 0.000007 -3.000021 -4.999606 -7.998820 -0.000076 -62.603547 76.392005 68.963751 40.639752 72.001320 -1.532932 -0.000000 -0.000008 0.000005 66.575835 8.445163 -10.355180 -0.000008 -0.000000 3.000008 -5.000086 8.000667 0.000448 -9.330974 -176.245204 0.863190 -179.999991 0.000005 -1.075001 155.227401 -4.574645 -1.461939 0.000001 0.000001 0.383329 81.093764 6.837373 1.183612 25.456950 -7.355603 0.000006 -13.136505 -174.905148 2.981923 -0.000006 -0.000005 -1.667601 -23.145694 3.213210 0.744195 -0.000007 0.000003 -1.089491 76.969422 -8.548696 3.905098 25.456953 7.355629 -0.000007 
50.970200 -9.608414 86.437599 1.249862 0.581996 49.866999 -2.014159 -3.392178 2.048826 0.094354 -6.833521 4.022115 1.742568 -6.784880 4.103844 -9.079727 31.741962 8.143133 15.952347 -20.776281 4.216978 2.562745 -33.183330 7.305989 110.899145 6.484006 109.292227 0.000008 -0.000008 -0.000006 20.510051 -15.200385 1.088588 0.000005 0.000009 -3.000018 -4.999606 -7.998818 -0.000076 -62.605698 76.394997 68.965322 40.543153 72.041666 -1.843008 -0.000003 -0.000007 0.000002 66.380259 8.608950 -10.425248 -0.000007 0.000000 3.000010 -5.000080 8.000662 0.000446 -9.301888 -176.310023 0.849801 -179.999991 0.000005 -1.079995 155.294487 -4.598029 -1.458172 0.000000 0.000001 0.384118 81.086817 6.848967 1.141740 25.456953 -7.355604 0.000005 -13.189774 -174.960814 2.979437 -0.000006 -0.000004 -1.662268 -23.174554 3.184088 0.745062 -0.000009 0.000004 -1.092491 76.940667 -8.537307 3.860732 25.456952 7.355627 -0.000008 
50.949097 -9.635236 86.468796 1.237394 0.626227 49.956970 -2.012041 -3.383917 2.046261 0.098180 -6.816870 4.017261 1.746374 -6.768294 4.098785 -9.059071 31.759843 8.109385 15.903464 -20.809375 4.182755 2.543550 -33.291787 7.257596 111.019998 6.384778 109.066018 0.000008 -0.000008 -0.000006 20.682344 -15.321380 1.147462 0.000004 0.000009 -3.000020 -4.999606 -7.998817 -0.000075 -62.615486 76.398377 68.974850 40.417863 72.087265 -2.076646 0.000001 -0.000004 0.000003 66.205748 8.759216 -10.490780 -0.000007 -0.000002 3.000009 -5.000080 8.000667 0.000449 -9.276543 -176.370962 0.838901 -179.999991 0.000004 -1.084002 155.354551 -4.622068 -1.455317 0.000000 0.000002 0.384872 81.082760 6.860504 1.099786 25.456950 -7.355607 0.000009 -13.243434 -175.012546 2.976922 -0.000005 -0.000004 -1.657251 -23.204758 3.156583 0.745979 -0.000008 0.000004 -1.095279 76.913258 -8.526274 3.818028 25.456953 7.355631 -0.000009 
50.944195 -9.667305 86.475395 1.227252 0.667794 50.043293 -2.009688 -3.375337 2.044059 0.102462 -6.799579 4.013171 1.750631 -6.751060 4.094479 -9.038158 31.780925 8.076576 15.857435 -20.847057 4.150231 2.529686 -33.388724 7.218740 111.139657 6.280672 108.854685 0.000007 -0.000008 -0.000007 20.852248 -15.436282 1.204989 0.000005 0.000008 -3.000019 -4.999607 -7.998820 -0.000073 -62.634351 76.402325 68.993790 40.258078 72.138382 -2.219407 0.000001 -0.000007 0.000003 66.056569 8.892377 -10.550702 -0.000007 -0.000002 3.000010 -5.000080 8.000664 0.000445 -9.255133 -176.427010 0.830737 -179.999991 0.000005 -1.087999 155.406638 -4.646758 -1.453507 0.000000 0.000001 0.385599 81.081975 6.872023 1.057632 25.456950 -7.355608 0.000008 -13.297531 -175.062338 2.974939 -0.000005 -0.000006 -1.652579 -23.236508 3.130865 0.746956 -0.000008 0.000003 -1.097840 76.887323 -8.515596 3.776803 25.456950 7.355626 -0.000009 
50.908401 -9.679807 86.476791 1.219776 0.707596 50.125628 -2.007295 -3.366399 2.042162 0.106831 -6.781577 4.009673 1.754976 -6.733100 4.090777 -9.016341 31.803362 8.044575 15.813727 -20.888501 4.119709 2.521030 -33.476974 7.188761 111.258447 6.171391 108.653809 0.000008 -0.000007 -0.000004 21.023561 -15.546813 1.262085 0.000005 0.000007 -3.000021 -4.999606 -7.998817 -0.000074 -62.655176 76.405836 69.014909 40.073768 72.195052 -2.292326 -0.000001 -0.000006 0.000003 65.925676 9.014348 -10.607962 -0.000006 -0.000001 3.000008 -5.000081 8.000662 0.000447 -9.238975 -176.479152 0.825767 -179.999991 0.000005 -1.092003 155.450365 -4.672054 -1.451718 0.000001 0.000000 0.386292 81.084761 6.883570 1.014667 25.456953 -7.355600 0.000003 -13.353734 -175.107281 2.972801 -0.000005 -0.000004 -1.648258 -23.270709 3.106851 0.748047 -0.000008 0.000003 -1.100181 76.862987 -8.505291 3.737364 25.456952 7.355630 -0.000006 
50.882702 -9.692074 86.490692 1.214961 0.746743 50.204260 -2.005039 -3.357149 2.040446 0.110925 -6.762978 4.006532 1.759048 -6.714534 4.087403 -8.993105 31.825400 8.013321 15.771638 -20.932134 4.091304 2.516723 -33.560025 7.165875 111.377374 6.056011 108.454019 0.000008 -0.000008 -0.000006 21.198708 -15.655179 1.319652 0.000006 0.000008 -3.000018 -4.999606 -7.998819 -0.000072 -62.670353 76.408076 69.030372 39.879275 72.256762 -2.328252 -0.000000 -0.000004 0.000007 65.802664 9.133388 -10.665708 -0.000005 -0.000000 3.000012 -5.000082 8.000668 0.000449 -9.228775 -176.527428 0.823696 -179.999991 0.000005 -1.095993 155.486415 -4.698902 -1.450367 -0.000001 0.000001 0.386959 81.090656 6.895332 0.970532 25.456952 -7.355603 0.000003 -13.413291 -175.150338 2.971019 -0.000003 -0.000005 -1.644240 -23.307747 3.084323 0.749282 -0.000009 0.000004 -1.102360 76.840093 -8.495321 3.699391 25.456948 7.355628 -0.000008 
50.862598 -9.713856 86.474991 1.212493 0.785196 50.279075 -2.002887 -3.347640 2.038885 0.114839 -6.743858 4.003723 1.762937 -6.695448 4.084369 -8.968649 31.847229 7.982814 15.731384 -20.977931 4.064954 2.516386 -33.637705 7.149568 111.496151 5.935982 108.257446 0.000008 -0.000007 -0.000007 21.376424 -15.761304 1.377558 0.000005 0.000011 -3.000020 -4.999606 -7.998820 -0.000074 -62.682702 76.409504 69.043063 39.674332 72.322353 -2.328533 0.000001 -0.000005 0.000005 65.687377 9.249617 -10.724134 -0.000004 -0.000001 3.000007 -5.000079 8.000666 0.000449 -9.223854 -176.572794 0.824276 -179.999991 0.000005 -1.099999 155.515566 -4.727326 -1.449371 0.000002 0.000001 0.387606 81.099125 6.907269 0.925550 25.456948 -7.355602 0.000006 -13.475496 -175.191456 2.969522 -0.000006 -0.000005 -1.640481 -23.347028 3.063195 0.750642 -0.000007 0.000004 -1.104368 76.818509 -8.485655 3.662788 25.456952 7.355633 -0.000008 
50.857395 -9.727338 86.488495 1.212023 0.822888 50.350382 -2.000765 -3.337928 2.037485 0.118668 -6.724335 4.001222 1.766743 -6.675965 4.081627 -8.943172 31.869021 7.953071 15.692838 -21.025795 4.040485 2.519606 -33.709903 7.139321 111.614826 5.812095 108.064582 0.000008 -0.000008 -0.000006 21.555339 -15.865139 1.435608 0.000005 0.000009 -3.000020 -4.999605 -7.998818 -0.000073 -62.693794 76.410207 69.054613 39.459482 72.391105 -2.295395 -0.000000 -0.000005 0.000004 65.579303 9.363102 -10.783052 -0.000008 -0.000003 3.000008 -5.000078 8.000662 0.000448 -9.223526 -176.614239 0.826946 -179.999991 0.000005 -1.103002 155.538789 -4.756449 -1.450237 0.000001 0.000001 0.388227 81.109938 6.919271 0.879632 25.456943 -7.355602 0.000003 -13.539872 -175.229719 2.967943 -0.000006 -0.000005 -1.636966 -23.388236 3.043363 0.752115 -0.000007 0.000003 -1.106229 76.798087 -8.476288 3.627347 25.456952 7.355630 -0.000008 
50.820900 -9.739157 86.407890 1.213244 0.859759 50.418291 -1.998650 -3.328068 2.036219 0.122505 -6.704515 3.999021 1.770558 -6.656171 4.079180 -8.916915 31.891157 7.924131 15.656013 -21.075657 4.017757 2.525982 -33.776457 7.134600 111.733145 5.685440 107.876636 0.000008 -0.000008 -0.000005 21.733882 -15.966744 1.493600 0.000004 0.000009 -3.000021 -4.999606 -7.998818 -0.000073 -62.705542 76.410426 69.066928 39.234854 72.462187 -2.230738 -0.000001 -0.000003 0.000004 65.478326 9.473816 -10.842423 -0.000007 -0.000000 3.000009 -5.000086 8.000665 0.000449 -9.227072 -176.653772 0.831613 -179.999991 0.000005 -1.105996 155.556725 -4.786302 -1.450952 0.000001 0.000001 0.388823 81.122587 6.931287 0.833397 25.456948 -7.355601 0.000005 -13.605680 -175.266028 2.966424 -0.000007 -0.000004 -1.633659 -23.430884 3.024740 0.753684 -0.000008 0.000005 -1.107932 76.778737 -8.467241 3.593351 25.456948 7.355632 -0.000008 
50.805702 -9.749975 86.426292 1.215821 0.895748 50.482884 -1.996486 -3.318108 2.035108 0.126443 -6.684503 3.997086 1.774473 -6.636189 4.077009 -8.890056 31.913745 7.895992 15.620977 -21.127295 3.996620 2.535081 -33.836952 7.134868 111.851390 5.556860 107.694120 0.000008 -0.000007 -0.000007 21.910786 -16.066075 1.551343 0.000004 0.000009 -3.000020 -4.999605 -7.998821 -0.000073 -62.719954 76.410522 69.082070 39.000206 72.534683 -2.135942 -0.000001 -0.000007 0.000001 65.384055 9.581872 -10.902251 -0.000006 -0.000002 3.000009 -5.000082 8.000664 0.000444 -9.233820 -176.691338 0.837843 -179.999991 0.000004 -1.109003 155.570344 -4.815987 -1.451003 0.000001 0.000001 0.389401 81.136650 6.943283 0.787076 25.456948 -7.355606 0.000004 -13.672331 -175.300425 2.964847 -0.000005 -0.000004 -1.630542 -23.474459 3.007233 0.755317 -0.000007 0.000004 -1.109480 76.760323 -8.458485 3.560390 25.456952 7.355627 -0.000007 
